{
  "accessors": [
    {
      "bufferView": 2,
      "componentType": 5126,
      "count": 14124,
      "max": [
        0.51726198196411133,
        0.96160602569580078,
        0.26417499780654907
      ],
      "min": [
        -0.51936399936676025,
        -1,
        -0.27707698941230774
      ],
      "type": "VEC3"
    },
    {
      "bufferView": 2,
      "byteOffset": 169488,
      "componentType": 5126,
      "count": 14124,
      "max": [
        0.99996078014373779,
        0.99999189376831055,
        0.99967163801193237
      ],
      "min": [
        -0.99994760751724243,
        -0.99938297271728516,
        -0.99973320960998535
      ],
      "type": "VEC3"
    },
    {
      "bufferView": 3,
      "componentType": 5126,
      "count": 14124,
      "max": [
        0.99994534254074097,
        0.99997633695602417,
        0.99985480308532715,
        1
      ],
      "min": [
        -0.99985307455062866,
        -0.99984729290008545,
        -0.99983781576156616,
        -1
      ],
      "type": "VEC4"
    },
    {
      "bufferView": 2,
      "byteOffset": 338976,
      "componentType": 5126,
      "count": 14124,
      "max": [
        1,
        1,
        1
      ],
      "min": [
        1,
        1,
        1
      ],
      "type": "VEC3"
    },
    {
      "bufferView": 1,
      "componentType": 5126,
      "count": 14124,
      "max": [
        1.9980200529098511,
        0.99804699420928955
      ],
      "min": [
        0.0019531298894435167,
        0.0019530999707058072
      ],
      "type": "VEC2"
    },
    {
      "bufferView": 0,
      "componentType": 5125,
      "count": 63417,
      "max": [
        14123
      ],
      "min": [
        0
      ],
      "type": "SCALAR"
    },
    {
      "bufferView": 2,
      "byteOffset": 508464,
      "componentType": 5126,
      "count": 14018,
      "max": [
        0.52586400508880615,
        1,
        0.27707698941230774
      ],
      "min": [
        -0.52586400508880615,
        -0.78174698352813721,
        -0.20483100414276123
      ],
      "type": "VEC3"
    },
    {
      "bufferView": 2,
      "byteOffset": 676680,
      "componentType": 5126,
      "count": 14018,
      "max": [
        0.99977010488510132,
        0.99999886751174927,
        0.99996763467788696
      ],
      "min": [
        -0.9999578595161438,
        -0.99996137619018555,
        -0.99967926740646362
      ],
      "type": "VEC3"
    },
    {
      "bufferView": 3,
      "byteOffset": 225984,
      "componentType": 5126,
      "count": 14018,
      "max": [
        0.99999880790710449,
        0.99999910593032837,
        0.99997556209564209,
        1
      ],
      "min": [
        -0.99997931718826294,
        -0.99953889846801758,
        -0.99996846914291382,
        -1
      ],
      "type": "VEC4"
    },
    {
      "bufferView": 2,
      "byteOffset": 844896,
      "componentType": 5126,
      "count": 14018,
      "max": [
        1,
        1,
        1
      ],
      "min": [
        0.99607843160629272,
        0.99607843160629272,
        0.99607843160629272
      ],
      "type": "VEC3"
    },
    {
      "bufferView": 1,
      "byteOffset": 112992,
      "componentType": 5126,
      "count": 14018,
      "max": [
        1.9980499744415283,
        0.99732798337936401
      ],
      "min": [
        0.0019530999707058072,
        0.0019531199941411614
      ],
      "type": "VEC2"
    },
    {
      "bufferView": 0,
      "byteOffset": 253668,
      "componentType": 5125,
      "count": 54942,
      "max": [
        14017
      ],
      "min": [
        0
      ],
      "type": "SCALAR"
    }
  ],
  "asset": {
    "extras": {
      "author": "Javi (https://sketchfab.com/JavierGomezGarcia)",
      "license": "CC-BY-4.0 (http://creativecommons.org/licenses/by/4.0/)",
      "source": "https://sketchfab.com/3d-models/medieval-armor-1334baef86694762a22cc18b43509dc4",
      "title": "Medieval Armor"
    },
    "generator": "Sketchfab-8.59.0",
    "version": "2.0"
  },
  "bufferViews": [
    {
      "buffer": 0,
      "byteLength": 473436,
      "byteOffset": 0,
      "name": "floatBufferViews",
      "target": 34963
    },
    {
      "buffer": 0,
      "byteLength": 225136,
      "byteOffset": 473436,
      "byteStride": 8,
      "name": "floatBufferViews",
      "target": 34962
    },
    {
      "buffer": 0,
      "byteLength": 1013112,
      "byteOffset": 698572,
      "byteStride": 12,
      "name": "floatBufferViews",
      "target": 34962
    },
    {
      "buffer": 0,
      "byteLength": 450272,
      "byteOffset": 1711684,
      "byteStride": 16,
      "name": "floatBufferViews",
      "target": 34962
    }
  ],
  "buffers": [
    {
      "byteLength": 2161956,
      "uri": "scene.bin"
    }
  ],
  "images": [
    {
      "uri": "textures/material_baseColor.jpeg"
    },
    {
      "uri": "textures/material_metallicRoughness.png"
    },
    {
      "uri": "textures/material_normal.png"
    },
    {
      "uri": "textures/Cloth_AI_baseColor.jpeg"
    },
    {
      "uri": "textures/Cloth_AI_metallicRoughness.png"
    },
    {
      "uri": "textures/Cloth_AI_normal.png"
    }
  ],
  "materials": [
    {
      "doubleSided": true,
      "name": "material",
      "normalTexture": {
        "index": 2,
        "scale": 1,
        "texCoord": 0
      },
      "occlusionTexture": {
        "index": 1,
        "strength": 1,
        "texCoord": 0
      },
      "pbrMetallicRoughness": {
        "baseColorFactor": [
          1,
          1,
          1,
          1
        ],
        "baseColorTexture": {
          "index": 0,
          "texCoord": 0
        },
        "metallicFactor": 1,
        "metallicRoughnessTexture": {
          "index": 1,
          "texCoord": 0
        },
        "roughnessFactor": 1
      }
    },
    {
      "doubleSided": true,
      "name": "Cloth_AI",
      "normalTexture": {
        "index": 5,
        "scale": 1,
        "texCoord": 0
      },
      "occlusionTexture": {
        "index": 4,
        "strength": 1,
        "texCoord": 0
      },
      "pbrMetallicRoughness": {
        "baseColorFactor": [
          1,
          1,
          1,
          1
        ],
        "baseColorTexture": {
          "index": 3,
          "texCoord": 0
        },
        "metallicFactor": 1,
        "metallicRoughnessTexture": {
          "index": 4,
          "texCoord": 0
        },
        "roughnessFactor": 1
      }
    }
  ],
  "meshes": [
    {
      "name": "defaultMaterial",
      "primitives": [
        {
          "attributes": {
            "COLOR_0": 3,
            "NORMAL": 1,
            "POSITION": 0,
            "TANGENT": 2,
            "TEXCOORD_0": 4
          },
          "indices": 5,
          "material": 1,
          "mode": 4
        }
      ]
    },
    {
      "name": "defaultMaterial",
      "primitives": [
        {
          "attributes": {
            "COLOR_0": 9,
            "NORMAL": 7,
            "POSITION": 6,
            "TANGENT": 8,
            "TEXCOORD_0": 10
          },
          "indices": 11,
          "material": 0,
          "mode": 4
        }
      ]
    }
  ],
  "nodes": [
    {
      "children": [
        1
      ],
      "name": "RootNode (gltf orientation matrix)",
      "rotation": [
        -0.70710678118654746,
        -0,
        -0,
        0.70710678118654757
      ]
    },
    {
      "children": [
        2
      ],
      "name": "RootNode (model correction matrix)"
    },
    {
      "children": [
        3,
        5
      ],
      "matrix": [
        1,
        0,
        0,
        0,
        0,
        -4.3711390063094768e-08,
        0.999999999999999,
        0,
        0,
        -0.999999999999999,
        -4.3711390063094768e-08,
        0,
        0,
        0,
        0,
        1
      ],
      "name": "Collada visual scene group"
    },
    {
      "children": [
        4
      ],
      "name": "Cloth"
    },
    {
      "mesh": 0,
      "name": "defaultMaterial"
    },
    {
      "children": [
        6
      ],
      "name": "Metal"
    },
    {
      "mesh": 1,
      "name": "defaultMaterial"
    }
  ],
  "samplers": [
    {
      "magFilter": 9729,
      "minFilter": 9987,
      "wrapS": 10497,
      "wrapT": 10497
    }
  ],
  "scene": 0,
  "scenes": [
    {
      "name": "OSG_Scene",
      "nodes": [
        0
      ]
    }
  ],
  "textures": [
    {
      "sampler": 0,
      "source": 0
    },
    {
      "sampler": 0,
      "source": 1
    },
    {
      "sampler": 0,
      "source": 2
    },
    {
      "sampler": 0,
      "source": 3
    },
    {
      "sampler": 0,
      "source": 4
    },
    {
      "sampler": 0,
      "source": 5
    }
  ]
}

